Plot outline: A CIA agent goes on the run after a defector accuses her of being a Russian spy.


Encoder: téchni.koloür

Source(s):
Солт / Salt [Theatrical Cut] (2010) BDRip (720p) от NOLIMITS-TEAM
Solt.2010.RUS.BDRip.XviD.AC3.-HELLYWOOD

Video
ID: 1
Format: AVC
Format/Info: Advanced Video Codec
Format profile: High@L4.1
Format settings, CABAC: Yes
Format settings, ReFrames: 3 frames
Format settings, GOP: M=4, N=16
Muxing mode: Container profile=Unknown@4.1
Codec ID: V_MPEG4/ISO/AVC
Duration: 1h 40mn
Bit rate: 2 581 Kbps
Nominal bit rate : 2 744 Kbps
Width: 1 280 pixels
Height: 532 pixels
Display aspect ratio: 2.40:1
Original display aspect ratio: 2.40:1
Frame rate: 23.976 fps
Color space: YUV
Chroma subsampling: 4:2:0
Bit depth: 8 bits
Scan type: Progressive
Bits/(Pixel*Frame): 0.158
Stream size: 1.80 GiB (85%)
Writing library: x264 core 105 r1732 2b04482
Encoding settings: cabac=1 / ref=3 / deblock=1:0:0 / analyse=0x3:0x113 / me=hex / subme=7 / psy=1 / psy_rd=1.00:0.00 / mixed_ref=1 / me_range=16 / chroma_me=1 / trellis=1 / 8x8dct=1 / cqm=0 / deadzone=21,11 / fast_pskip=1 / chroma_qp_offset=-2 / threads=6 / sliced_threads=0 / slices=4 / nr=0 / decimate=1 / interlaced=0 / constrained_intra=0 / bframes=3 / b_pyramid=1 / b_adapt=1 / b_bias=0 / direct=1 / weightb=1 / open_gop=0 / weightp=0 / keyint=24 / keyint_min=1 / scenecut=40 / intra_refresh=0 / rc_lookahead=24 / rc=abr / mbtree=1 / bitrate=2744 / ratetol=1.0 / qcomp=0.60 / qpmin=0 / qpmax=51 / qpstep=4 / vbv_maxrate=17500 / vbv_bufsize=14500 / ip_ratio=1.10 / aq=1:1.00 / nal_hrd=vbr

Audio
ID: 2
Format: AC-3
Format/Info: Audio Coding 3
Mode extension: CM (complete main)
Codec ID: A_AC3
Duration: 1h 40mn
Bit rate mode: Constant
Bit rate: 384 Kbps
Channel(s): 6 channels
Channel positions: Front: L C R, Side: L R, LFE
Sampling rate: 48.0 KHz
Stream size: 275 MiB (13%)
Title: ENG
Language: English

Text
ID: 3
Format: UTF-8
Codec ID: S_TEXT/UTF8
Codec ID/Info: UTF-8 Plain Text
Title: ENG
Language: English